<?xml version="1.0" encoding="UTF-8"?>
<svg version="1.1" xmlns="http://www.w3.org/2000/svg" width="338" height="234">
<path d="M0 0 C2.23507506 0.30602979 4.46817588 0.62677814 6.69921875 0.9609375 C7.90271973 1.13915039 9.1062207 1.31736328 10.34619141 1.50097656 C29.72206919 4.50376764 48.0686104 9.40765175 66.30981445 16.58325195 C70.71023449 18.17799687 72.71687141 18.52324038 77.1484375 16.67578125 C78.08905029 16.29703857 79.02966309 15.9182959 79.9987793 15.52807617 C81.52112183 14.90703003 81.52112183 14.90703003 83.07421875 14.2734375 C100.50219395 7.49274445 118.08505246 3.60360681 136.57421875 0.9609375 C137.74299561 0.79295654 138.91177246 0.62497559 140.1159668 0.4519043 C161.85662821 -2.40517517 161.85662821 -2.40517517 166.25317383 0.62036133 C168.25695992 3.65301369 167.99773176 6.89800256 167.38671875 10.3359375 C166.23384782 12.96921505 164.69784101 15.20372635 163.01171875 17.5234375 C160.34933631 21.32981239 157.90610391 24.90300608 156.38671875 29.3359375 C156.78503906 28.58828125 157.18335938 27.840625 157.59375 27.0703125 C158.12355469 26.08546875 158.65335938 25.100625 159.19921875 24.0859375 C159.72128906 23.11140625 160.24335938 22.136875 160.78125 21.1328125 C162.19021814 18.67825973 163.50881475 16.4516763 165.38671875 14.3359375 C168.8150369 13.81423691 170.99455517 14.19953278 174.26171875 15.3359375 C176.38671875 17.3359375 176.38671875 17.3359375 176.7421875 21.06640625 C176.61937998 25.39683338 175.21346428 28.00789829 172.82421875 31.6484375 C161.19036064 50.5886582 154.83683781 75.05860322 152.36035156 96.96850586 C151.71579724 102.41405915 150.67980847 107.12191984 146.57421875 111.0859375 C141.07521616 114.22822469 135.23655065 114.85859246 129.07421875 115.6484375 C115.62699117 117.54896264 103.54753881 121.36930479 91.01171875 126.5234375 C73.33270874 133.74181065 63.20328078 131.43787121 45.82495117 124.32421875 C34.8204826 119.83047603 23.74157413 116.34751192 11.90234375 114.9140625 C-0.70534817 113.37134914 -0.70534817 113.37134914 -5.61328125 109.3359375 C-8.44352632 103.91764437 -9.21559182 98.98479372 -9.86328125 92.9609375 C-12.09492993 75.02551248 -17.32124213 57.20939677 -24.98828125 40.8359375 C-25.29064697 40.18302734 -25.5930127 39.53011719 -25.90454102 38.85742188 C-27.56635259 35.33260663 -29.34849898 32.04838343 -31.55078125 28.8359375 C-33.88695634 25.26570314 -34.43944901 22.63200986 -33.61328125 18.3359375 C-31.04011955 15.38436966 -29.39525653 14.47956561 -25.55078125 13.7734375 C-22.61328125 14.3359375 -22.61328125 14.3359375 -20.61328125 16.2109375 C-17.84912977 20.52992419 -15.19428232 24.905219 -12.61328125 29.3359375 C-13.85675514 26.9365158 -15.10773972 24.54153527 -16.36328125 22.1484375 C-16.71132812 21.47490234 -17.059375 20.80136719 -17.41796875 20.10742188 C-19.50153762 16.15249949 -21.80980985 12.83407438 -24.61328125 9.3359375 C-25.11328125 6.2734375 -25.11328125 6.2734375 -24.61328125 3.3359375 C-19.12569772 -3.94084317 -8.07321111 -0.91898093 0 0 Z M80.38671875 30.3359375 C81.13821898 33.61367254 81.13821898 33.61367254 84.38671875 35.3359375 C83.80520617 39.11576928 82.08363247 40.85620483 79.63671875 43.7109375 C74.26077927 51.85696393 77.12114235 60.76919124 78.88476562 69.76904297 C79.53488482 73.09363113 80.0620457 76.4249122 80.57421875 79.7734375 C80.73277344 80.70027344 80.89132813 81.62710938 81.0546875 82.58203125 C81.88457749 89.46523646 81.50745464 93.04303915 77.38671875 98.7734375 C76.64421875 99.82402344 75.90171875 100.87460938 75.13671875 101.95703125 C74.55921875 102.74207031 73.98171875 103.52710938 73.38671875 104.3359375 C70.42520909 104.01488889 69.48418187 103.44508827 67.46484375 101.18359375 C66.8615625 100.26449219 66.25828125 99.34539062 65.63671875 98.3984375 C65.023125 97.50253906 64.40953125 96.60664063 63.77734375 95.68359375 C60.88876655 88.72991213 62.35635864 81.92460662 63.7265625 74.7109375 C63.91718765 73.69385963 63.91718765 73.69385963 64.11166382 72.65623474 C64.64454079 69.83646695 65.17800682 67.01915025 65.77856445 64.21289062 C67.76938809 55.64424362 67.76938809 55.64424362 65.98876953 47.28515625 C64.15220037 44.65057327 64.15220037 44.65057327 62.08813477 42.44921875 C60.13926435 40.02858131 59.62325897 38.41514411 59.38671875 35.3359375 C60.82421875 33.6484375 60.82421875 33.6484375 62.38671875 32.3359375 C62.38671875 31.6759375 62.38671875 31.0159375 62.38671875 30.3359375 C46.40862905 24.49358015 30.49479971 19.408268 13.69921875 16.5234375 C12.9810498 16.39936523 12.26288086 16.27529297 11.52294922 16.14746094 C6.76193882 15.39167422 2.2065921 15.23315681 -2.61328125 15.3359375 C-1.23366287 19.78436556 0.52835501 23.84275942 2.57421875 28.0234375 C9.30524241 42.19597192 14.04836713 56.86349382 18.02734375 72.01953125 C18.26026123 72.87417969 18.49317871 73.72882813 18.7331543 74.609375 C19.38671875 77.3359375 19.38671875 77.3359375 19.83129883 80.484375 C20.75934495 86.56450825 20.75934495 86.56450825 24.61572266 91.0612793 C27.55817166 92.43276861 30.48212865 93.47308169 33.57421875 94.4609375 C35.7592904 95.26107469 37.94031045 96.072361 40.1171875 96.89453125 C41.72086182 97.49370361 41.72086182 97.49370361 43.35693359 98.10498047 C53.33336099 102.1582558 62.76109605 108.76048337 70.38671875 116.3359375 C73.96332824 114.74164695 76.80774093 112.55285432 79.88671875 110.1484375 C87.48046624 104.4004485 94.70308509 99.18177618 104.046875 96.8515625 C113.32128166 94.36190907 113.32128166 94.36190907 121.38671875 89.3359375 C125.3495018 82.30565715 125.7452877 73.87138049 126.77734375 66.00195312 C127.77660128 59.99039421 129.70974624 54.3721391 131.76171875 48.6484375 C132.14320068 47.56989502 132.52468262 46.49135254 132.91772461 45.38012695 C135.6778709 37.80010224 138.90984891 30.59325512 142.7578125 23.5078125 C144.30579617 20.49351336 145.41014902 17.57481198 146.38671875 14.3359375 C124.53574873 14.3359375 100.30808898 21.98300675 80.38671875 30.3359375 Z M-11.61328125 31.3359375 C-10.61328125 34.3359375 -10.61328125 34.3359375 -10.61328125 34.3359375 Z M-10.61328125 34.3359375 C-9.61328125 36.3359375 -9.61328125 36.3359375 -9.61328125 36.3359375 Z M152.38671875 35.3359375 C152.05671875 36.6559375 151.72671875 37.9759375 151.38671875 39.3359375 C152.04671875 38.0159375 152.70671875 36.6959375 153.38671875 35.3359375 C153.05671875 35.3359375 152.72671875 35.3359375 152.38671875 35.3359375 Z M150.38671875 39.3359375 C150.05671875 40.9859375 149.72671875 42.6359375 149.38671875 44.3359375 C150.04671875 43.6759375 150.70671875 43.0159375 151.38671875 42.3359375 C151.05671875 41.3459375 150.72671875 40.3559375 150.38671875 39.3359375 Z M-7.61328125 40.3359375 C-6.61328125 43.3359375 -6.61328125 43.3359375 -6.61328125 43.3359375 Z M148.38671875 44.3359375 C143.13455646 57.42122156 139.20569794 70.63897313 136.29296875 84.4375 C136.11846191 85.25943848 135.94395508 86.08137695 135.76416016 86.92822266 C135.43703542 88.49581457 135.12101357 90.06577791 134.81787109 91.63818359 C133.46867223 98.20108307 133.46867223 98.20108307 130.38671875 100.3359375 C127.69921875 101.5234375 127.69921875 101.5234375 125.38671875 102.3359375 C128.3363379 103.58385329 129.42617239 103.32173419 132.51171875 102.2109375 C135.86785513 100.02215291 136.22399732 99.07550103 137.38671875 95.3359375 C137.68736805 93.17571658 137.93132088 91.00728643 138.13671875 88.8359375 C139.66583442 75.3821035 144.14117634 62.17681696 148.8203125 49.515625 C149.63796784 47.18191718 149.63796784 47.18191718 148.38671875 44.3359375 Z M-4.61328125 48.3359375 C-3.61328125 50.3359375 -3.61328125 50.3359375 -3.61328125 50.3359375 Z M-3.61328125 51.3359375 C-3.28328125 53.3159375 -2.95328125 55.2959375 -2.61328125 57.3359375 C-1.93179895 55.44414547 -1.93179895 55.44414547 -1.61328125 53.3359375 C-2.27328125 52.6759375 -2.93328125 52.0159375 -3.61328125 51.3359375 Z M-1.61328125 57.3359375 C-0.61328125 60.3359375 -0.61328125 60.3359375 -0.61328125 60.3359375 Z M-0.61328125 61.3359375 C-0.28328125 62.9859375 0.04671875 64.6359375 0.38671875 66.3359375 C0.71671875 65.3459375 1.04671875 64.3559375 1.38671875 63.3359375 C0.72671875 62.6759375 0.06671875 62.0159375 -0.61328125 61.3359375 Z M1.38671875 67.3359375 C2.38671875 71.3359375 2.38671875 71.3359375 2.38671875 71.3359375 Z M2.38671875 71.3359375 C3.38671875 75.3359375 3.38671875 75.3359375 3.38671875 75.3359375 Z M3.38671875 75.3359375 C3.88942878 81.06683184 4.74480888 86.68601705 5.82421875 92.3359375 C5.94643799 93.0069751 6.06865723 93.6780127 6.19458008 94.36938477 C6.52419147 96.03971566 6.94816789 97.6908472 7.38671875 99.3359375 C8.04671875 99.6659375 8.70671875 99.9959375 9.38671875 100.3359375 C8.76063923 94.53646401 7.71270937 88.99783919 6.32421875 83.3359375 C6.13794922 82.56121094 5.95167969 81.78648437 5.75976562 80.98828125 C5.30595697 79.10322991 4.84689383 77.2194448 4.38671875 75.3359375 C4.05671875 75.3359375 3.72671875 75.3359375 3.38671875 75.3359375 Z M9.38671875 100.3359375 C9.71671875 100.9959375 10.04671875 101.6559375 10.38671875 102.3359375 C12.28205217 102.80116813 12.28205217 102.80116813 14.44921875 102.9609375 C15.74859375 103.0846875 17.04796875 103.2084375 18.38671875 103.3359375 C15.1990951 101.21085506 13.12159652 100.8339212 9.38671875 100.3359375 Z " fill="#D5D540" transform="translate(100.61328125,60.6640625)"/>
<path d="M0 0 C2.23507506 0.30602979 4.46817588 0.62677814 6.69921875 0.9609375 C7.90271973 1.13915039 9.1062207 1.31736328 10.34619141 1.50097656 C29.72206919 4.50376764 48.0686104 9.40765175 66.30981445 16.58325195 C66.99519287 16.83163818 67.68057129 17.08002441 68.38671875 17.3359375 C69.02826904 17.57111084 69.66981934 17.80628418 70.33081055 18.04858398 C73.18120248 18.44698219 74.94362235 17.63486214 77.60546875 16.5703125 C78.62125 16.17457031 79.63703125 15.77882813 80.68359375 15.37109375 C81.740625 14.94699219 82.79765625 14.52289063 83.88671875 14.0859375 C106.19380513 5.20233652 106.19380513 5.20233652 112.38671875 7.3359375 C111.78883545 7.51189453 111.19095215 7.68785156 110.57495117 7.86914062 C104.24465521 9.74805439 97.96385813 11.74924307 91.69921875 13.8359375 C90.80138672 14.13113281 89.90355469 14.42632812 88.97851562 14.73046875 C85.07232372 16.02967104 81.25125495 17.34979473 77.50390625 19.05859375 C69.71289895 22.25114937 60.80705833 18.3413823 53.38671875 15.3359375 C52.64252686 14.85302246 51.89833496 14.37010742 51.1315918 13.87255859 C47.98564426 12.11140999 45.19113464 11.39168053 41.671875 10.6171875 C41.02805878 10.47394547 40.38424255 10.33070343 39.72091675 10.18312073 C37.63257778 9.72300239 35.54142123 9.27813276 33.44921875 8.8359375 C32.73452423 8.68252899 32.01982971 8.52912048 31.28347778 8.37106323 C5.57608658 2.85716137 5.57608658 2.85716137 -20.61328125 2.3359375 C-20.94328125 2.6659375 -21.27328125 2.9959375 -21.61328125 3.3359375 C-21.51597971 8.00641165 -20.60315613 10.64026412 -17.875 14.4296875 C-14.50987681 19.33462925 -11.97608602 24.44438583 -9.48828125 29.8359375 C-9.07191406 30.72152344 -8.65554687 31.60710937 -8.2265625 32.51953125 C3.32544713 57.18071795 3.32544713 57.18071795 3.82421875 64.6484375 C4.20747544 70.02361261 6.29079285 74.69268346 8.203125 79.6875 C9.38862381 83.34180986 9.88042159 86.64796593 10.26171875 90.4609375 C10.70658556 94.53703618 10.70658556 94.53703618 12.7421875 97.9296875 C14.60019015 99.05214219 16.30936821 99.70956081 18.38671875 100.3359375 C19.43085937 100.70332031 19.43085937 100.70332031 20.49609375 101.078125 C21.98697923 101.59094731 23.4848063 102.08394722 24.98828125 102.55859375 C31.6486474 104.71724662 37.73490542 107.17144347 43.38671875 111.3359375 C39.86481927 112.58512381 38.09433142 112.0821664 34.69921875 110.6484375 C29.00441424 108.41970159 23.28677137 107.05293576 17.3137207 105.81958008 C13.1691175 104.92187891 9.75023255 103.97152667 6.38671875 101.3359375 C5.34765625 99.41796875 5.34765625 99.41796875 4.76171875 97.1484375 C4.53484375 96.27703125 4.30796875 95.405625 4.07421875 94.5078125 C2.94227178 89.2854208 1.96165494 84.03967688 1.03515625 78.77734375 C0.47369844 75.37171414 0.47369844 75.37171414 -0.61328125 72.3359375 C-0.65606208 70.96160319 -0.65385398 69.58533877 -0.61328125 68.2109375 C-0.61328125 66.9321875 -0.61328125 65.6534375 -0.61328125 64.3359375 C-0.94328125 64.0059375 -1.27328125 63.6759375 -1.61328125 63.3359375 C-2.62664953 61.1585252 -3.60248387 58.97905031 -4.55078125 56.7734375 C-4.82438477 56.14026611 -5.09798828 55.50709473 -5.37988281 54.85473633 C-6.81996921 51.4499855 -8.05355982 48.13097687 -8.86328125 44.5234375 C-9.11078125 43.4715625 -9.35828125 42.4196875 -9.61328125 41.3359375 C-10.27328125 41.0059375 -10.93328125 40.6759375 -11.61328125 40.3359375 C-12.4019132 38.56963823 -13.11903244 36.77117838 -13.80078125 34.9609375 C-15.6251419 30.48588815 -17.60288741 26.25602215 -20.05078125 22.0859375 C-20.58574219 21.17328125 -21.12070313 20.260625 -21.671875 19.3203125 C-23.51920592 17.02593238 -23.51920592 17.02593238 -26.7109375 16.9140625 C-29.73414422 17.05810762 -29.73414422 17.05810762 -31.61328125 19.3359375 C-31.48516144 23.69201103 -29.25498022 26.57007664 -26.94921875 30.08203125 C-25.0668938 33.25776662 -23.79890559 36.58882225 -22.5078125 40.0390625 C-21.66077208 42.34303634 -21.66077208 42.34303634 -20.5 44.4453125 C-19.61328125 46.3359375 -19.61328125 46.3359375 -19.61328125 49.3359375 C-18.95328125 49.3359375 -18.29328125 49.3359375 -17.61328125 49.3359375 C-15.47129034 55.48116385 -13.45574549 61.53556648 -12.16796875 67.91796875 C-11.50715075 70.79857678 -10.61654224 73.57642836 -9.73828125 76.3984375 C-7.42543252 84.22257259 -6.23387273 92.17759678 -5.09619141 100.24829102 C-4.94585449 101.25045654 -4.79551758 102.25262207 -4.640625 103.28515625 C-4.51421631 104.18580811 -4.38780762 105.08645996 -4.25756836 106.0144043 C-3.53871309 108.60462589 -2.66192931 109.64609024 -0.61328125 111.3359375 C-2.92578125 110.7734375 -2.92578125 110.7734375 -5.61328125 109.3359375 C-8.46924848 103.93977337 -9.21693324 98.97231782 -9.86328125 92.9609375 C-12.09492993 75.02551248 -17.32124213 57.20939677 -24.98828125 40.8359375 C-25.29064697 40.18302734 -25.5930127 39.53011719 -25.90454102 38.85742188 C-27.56635259 35.33260663 -29.34849898 32.04838343 -31.55078125 28.8359375 C-33.88695634 25.26570314 -34.43944901 22.63200986 -33.61328125 18.3359375 C-31.04011955 15.38436966 -29.39525653 14.47956561 -25.55078125 13.7734375 C-22.61328125 14.3359375 -22.61328125 14.3359375 -20.61328125 16.2109375 C-17.84912977 20.52992419 -15.19428232 24.905219 -12.61328125 29.3359375 C-13.85675514 26.9365158 -15.10773972 24.54153527 -16.36328125 22.1484375 C-16.71132812 21.47490234 -17.059375 20.80136719 -17.41796875 20.10742188 C-19.50153762 16.15249949 -21.80980985 12.83407438 -24.61328125 9.3359375 C-25.11328125 6.2734375 -25.11328125 6.2734375 -24.61328125 3.3359375 C-19.12569772 -3.94084317 -8.07321111 -0.91898093 0 0 Z M-11.61328125 31.3359375 C-10.61328125 34.3359375 -10.61328125 34.3359375 -10.61328125 34.3359375 Z M-10.61328125 34.3359375 C-9.61328125 36.3359375 -9.61328125 36.3359375 -9.61328125 36.3359375 Z M-7.61328125 40.3359375 C-6.61328125 43.3359375 -6.61328125 43.3359375 -6.61328125 43.3359375 Z M-4.61328125 48.3359375 C-3.61328125 50.3359375 -3.61328125 50.3359375 -3.61328125 50.3359375 Z M-3.61328125 51.3359375 C-3.28328125 53.3159375 -2.95328125 55.2959375 -2.61328125 57.3359375 C-1.93179895 55.44414547 -1.93179895 55.44414547 -1.61328125 53.3359375 C-2.27328125 52.6759375 -2.93328125 52.0159375 -3.61328125 51.3359375 Z M-1.61328125 57.3359375 C-0.61328125 60.3359375 -0.61328125 60.3359375 -0.61328125 60.3359375 Z M1.38671875 67.3359375 C2.38671875 71.3359375 2.38671875 71.3359375 2.38671875 71.3359375 Z M2.38671875 71.3359375 C3.38671875 75.3359375 3.38671875 75.3359375 3.38671875 75.3359375 Z M3.38671875 75.3359375 C3.88942878 81.06683184 4.74480888 86.68601705 5.82421875 92.3359375 C5.94643799 93.0069751 6.06865723 93.6780127 6.19458008 94.36938477 C6.52419147 96.03971566 6.94816789 97.6908472 7.38671875 99.3359375 C8.04671875 99.6659375 8.70671875 99.9959375 9.38671875 100.3359375 C8.76063923 94.53646401 7.71270937 88.99783919 6.32421875 83.3359375 C6.13794922 82.56121094 5.95167969 81.78648437 5.75976562 80.98828125 C5.30595697 79.10322991 4.84689383 77.2194448 4.38671875 75.3359375 C4.05671875 75.3359375 3.72671875 75.3359375 3.38671875 75.3359375 Z M9.38671875 100.3359375 C9.71671875 100.9959375 10.04671875 101.6559375 10.38671875 102.3359375 C12.28205217 102.80116813 12.28205217 102.80116813 14.44921875 102.9609375 C15.74859375 103.0846875 17.04796875 103.2084375 18.38671875 103.3359375 C15.1990951 101.21085506 13.12159652 100.8339212 9.38671875 100.3359375 Z " fill="#646450" transform="translate(100.61328125,60.6640625)"/>
<path d="M0 0 C0.99 0.33 1.98 0.66 3 1 C3.88671875 3.51171875 3.88671875 3.51171875 4.6875 6.6875 C6.38806517 12.16709889 8.13714021 14.88179339 12.9609375 17.953125 C15.5720637 19.2937032 18.15267702 20.28816925 21 21 C21 21.99 21 22.98 21 24 C20.40832031 24.24234375 19.81664062 24.4846875 19.20703125 24.734375 C18.41683594 25.06953125 17.62664062 25.4046875 16.8125 25.75 C15.64654297 26.23726562 15.64654297 26.23726562 14.45703125 26.734375 C8.9109567 29.59117652 6.40547534 32.4198934 4.1875 38.25 C3.76855469 39.32765625 3.34960938 40.4053125 2.91796875 41.515625 C2.61503906 42.33546875 2.31210938 43.1553125 2 44 C0.515 43.505 0.515 43.505 -1 43 C-1.703125 40.92578125 -1.703125 40.92578125 -2.25 38.3125 C-3.781619 32.75740518 -6.07286926 29.93882011 -11 27 C-13.64927461 25.78188947 -16.20918431 24.88131022 -19 24 C-18 21 -18 21 -15.890625 19.82421875 C-15.01921875 19.44910156 -14.1478125 19.07398437 -13.25 18.6875 C-7.71362685 16.0180362 -4.238154 13.35710862 -2.0390625 7.39453125 C-1.28498515 4.94205032 -0.60594681 2.49275678 0 0 Z " fill="#D6D640" transform="translate(171,15)"/>
<path d="M0 0 C-0.64002196 4.60460246 -2.48799376 8.48786266 -4.5 12.625 C-6.97094295 17.71887208 -6.97094295 17.71887208 -9 23 C-9.66 23 -10.32 23 -11 23 C-11.10957031 23.556875 -11.21914062 24.11375 -11.33203125 24.6875 C-12.25767599 29.14263567 -13.38903144 33.30690545 -15.078125 37.546875 C-16.6049119 41.60968081 -17.89635809 45.75715458 -19.19848633 49.89697266 C-20.15176564 52.84004833 -20.78045856 54.78045856 -23 57 C-22.44568315 49.74988753 -20.33791868 43.33876006 -17.9375 36.5 C-17.53772949 35.35176758 -17.13795898 34.20353516 -16.72607422 33.02050781 C-13.48746105 23.93194998 -9.60514359 15.46012804 -5 7 C-3.99271408 5.00365958 -2.99026777 3.00483659 -2 1 C-3.26328125 1.29390625 -4.5265625 1.5878125 -5.828125 1.890625 C-10.16657448 2.85585381 -14.51521055 3.59641709 -18.90356445 4.29296875 C-27.85266336 5.72985984 -36.59684066 7.49942454 -45.3125 10 C-46.14040039 10.23686523 -46.96830078 10.47373047 -47.82128906 10.71777344 C-52.97670861 12.25294281 -57.91318866 14.11777886 -62.86010742 16.23046875 C-65 17 -65 17 -68 17 C-67.154375 17.7425 -66.30875 18.485 -65.4375 19.25 C-63 22 -63 22 -63.11328125 23.8984375 C-64.22309198 26.52873783 -65.89268059 28.20812735 -67.75 30.375 C-73.12593948 38.52102643 -70.2655764 47.43325374 -68.50195312 56.43310547 C-64.57823195 76.49828271 -64.57823195 76.49828271 -67.12109375 80.97265625 C-68.33696587 82.70518791 -69.66150962 84.36034928 -71 86 C-71.625 84.1875 -71.625 84.1875 -72 82 C-71.34 81.01 -70.68 80.02 -70 79 C-68.76231714 68.98602053 -69.43909587 53.12180826 -74 44 C-74.82664879 38.21345845 -74.03594427 35.53381396 -70.625 30.75 C-69.99851563 29.94046875 -69.37203125 29.1309375 -68.7265625 28.296875 C-67.18806126 26.25018104 -66.05495199 24.32302559 -65 22 C-65.61875 21.690625 -66.2375 21.38125 -66.875 21.0625 C-68.25 20.375 -69.625 19.6875 -71 19 C-70.39453125 17.15625 -70.39453125 17.15625 -69 15 C-66.19921875 13.65625 -66.19921875 13.65625 -62.6875 12.5 C-62.06302979 12.29133301 -61.43855957 12.08266602 -60.79516602 11.86767578 C-58.86814607 11.22946739 -56.93500366 10.61351349 -55 10 C-53.33710938 9.45472656 -53.33710938 9.45472656 -51.640625 8.8984375 C-35.31071362 3.68083167 -17.26765774 -0.84922907 0 0 Z " fill="#6F6F4F" transform="translate(249,74)"/>
<path d="M0 0 C1.24249796 3.72749389 0.63991412 4.28568142 -1 7.75 C-7.34093778 22.38699804 -11.36531803 37.97755022 -14.2265625 53.63793945 C-15.84812606 61.96694683 -15.84812606 61.96694683 -20 65 C-18.04105639 64.88693303 -18.04105639 64.88693303 -16 64 C-13.95184773 60.00087056 -13.50303134 56.05347231 -13 51.625 C-12.41740602 46.51689925 -11.51645143 41.89055587 -10 37 C-9.67 37 -9.34 37 -9 37 C-9 39.64 -9 42.28 -9 45 C-9.66 45 -10.32 45 -11 45 C-10.979375 46.299375 -10.95875 47.59875 -10.9375 48.9375 C-10.92995028 53.69382325 -11.40112883 58.28388953 -12 63 C-12.66 63 -13.32 63 -14 63 C-14.33 63.99 -14.66 64.98 -15 66 C-18.0920469 68.0613646 -19.71833791 68.443228 -23.3125 69 C-26.47693473 69.52462997 -29.26586945 70.09029529 -32.3125 71.125 C-35.33395924 72.10873091 -37.84259608 72.15035257 -41 72 C-41 72.66 -41 73.32 -41 74 C-42.7902061 74.67057887 -44.58221489 75.3363469 -46.375 76 C-47.37273437 76.37125 -48.37046875 76.7425 -49.3984375 77.125 C-52 78 -52 78 -54 78 C-53 75 -53 75 -51.171875 73.7890625 C-41.72583802 69.24887053 -32.10311152 65.33859112 -21.92578125 62.7734375 C-19.63422838 62.06383342 -19.63422838 62.06383342 -18 59 C-17.44322452 56.86811167 -17.44322452 56.86811167 -17.10546875 54.4921875 C-16.95722656 53.5959668 -16.80898437 52.69974609 -16.65625 51.77636719 C-16.42421875 50.34019043 -16.42421875 50.34019043 -16.1875 48.875 C-13.20989609 31.53784439 -8.1176094 15.63637877 0 0 Z " fill="#6D6D4F" transform="translate(251,97)"/>
<path d="M0 0 C0.99 0.33 1.98 0.66 3 1 C3.28875 1.94875 3.5775 2.8975 3.875 3.875 C4.7272708 7.14602023 4.7272708 7.14602023 7.4375 8.8125 C10.03163666 10.07274974 10.03163666 10.07274974 13 11 C12.875 12.8125 12.875 12.8125 12 15 C9.0625 16.625 9.0625 16.625 6 18 C3.53721199 20.46278801 3.00228745 22.70676982 2 26 C1.01 26 0.02 26 -1 26 C-1.1959375 25.46890625 -1.391875 24.9378125 -1.59375 24.390625 C-3.85858492 19.04092873 -6.04092873 16.85858492 -11.390625 14.59375 C-11.92171875 14.3978125 -12.4528125 14.201875 -13 14 C-12 11 -12 11 -10.29296875 10.078125 C-9.59816406 9.80484375 -8.90335937 9.5315625 -8.1875 9.25 C-3.50861419 7.09956056 -2.12539776 4.60502847 0 0 Z " fill="#C3C343" transform="translate(130,33)"/>
<path d="M0 0 C3.30698302 -0.23071975 5.72942826 -0.09411191 8.875 1 C11 3 11 3 11.35546875 6.73046875 C11.23266123 11.06089588 9.82674553 13.67196079 7.4375 17.3125 C-4.19635811 36.2527207 -10.54988094 60.72266572 -13.02636719 82.63256836 C-13.67092151 88.07812165 -14.70691028 92.78598234 -18.8125 96.75 C-24.31322071 99.89326898 -30.20750422 100.56295822 -36.375 101.375 C-45.44108481 102.6403276 -54.1801911 104.57332074 -63 107 C-63 106.34 -63 105.68 -63 105 C-53.40781122 101.61058134 -44.13974152 99.27248936 -34.00488281 98.16479492 C-27.48745662 97.37090431 -21.59590265 95.90910971 -17.08984375 90.859375 C-15.51483322 86.72708931 -15.06585933 82.62638588 -14.5625 78.25 C-12.48331945 62.35441786 -8.62162994 47.95098528 -2.78564453 33.02050781 C-2.12861678 31.33077454 -1.49674577 29.6312878 -0.87109375 27.9296875 C0.7744721 23.53692175 2.71704226 19.76840136 5.25 15.8125 C7.9317069 11.54737319 8.64908503 8.9763186 8 4 C5.69 3.01 3.38 2.02 1 1 C1 1.66 1 2.32 1 3 C0.34 3 -0.32 3 -1 3 C-0.67 2.01 -0.34 1.02 0 0 Z " fill="#6E6E4F" transform="translate(266,75)"/>
<path d="M0 0 C0.99 0.33 1.98 0.66 3 1 C3.61875 2.670625 3.61875 2.670625 4.25 4.375 C5.13702473 6.71003267 5.62629039 7.75838462 7.74609375 9.12890625 C9.46223986 9.84367938 11.22978638 10.43219563 13 11 C13 12.32 13 13.64 13 15 C11.39125 15.495 11.39125 15.495 9.75 16 C5.57348949 17.73668287 4.36392372 20.32645329 2.62890625 24.35546875 C2.42136719 24.89816406 2.21382812 25.44085938 2 26 C1.01 26 0.02 26 -1 26 C-1.20753906 25.37351562 -1.41507813 24.74703125 -1.62890625 24.1015625 C-3.26499528 19.28980097 -3.26499528 19.28980097 -6.82421875 15.95703125 C-8.94822084 15.33949343 -8.94822084 15.33949343 -12 15 C-11.9375 13.1875 -11.9375 13.1875 -11 11 C-9.26575656 10.34556851 -7.53076162 9.69291627 -5.7890625 9.05859375 C-2.45389202 7.08516318 -1.33717577 3.49659005 0 0 Z " fill="#79794D" transform="translate(213,33)"/>
<path d="M0 0 C0.99 0.33 1.98 0.66 3 1 C3.88671875 3.51171875 3.88671875 3.51171875 4.6875 6.6875 C6.38806517 12.16709889 8.13714021 14.88179339 12.9609375 17.953125 C15.5720637 19.2937032 18.15267702 20.28816925 21 21 C21 21.99 21 22.98 21 24 C20.40832031 24.24234375 19.81664062 24.4846875 19.20703125 24.734375 C18.41683594 25.06953125 17.62664062 25.4046875 16.8125 25.75 C15.64654297 26.23726562 15.64654297 26.23726562 14.45703125 26.734375 C8.9109567 29.59117652 6.40547534 32.4198934 4.1875 38.25 C3.76855469 39.32765625 3.34960938 40.4053125 2.91796875 41.515625 C2.61503906 42.33546875 2.31210938 43.1553125 2 44 C0.515 43.505 0.515 43.505 -1 43 C-1.703125 40.92578125 -1.703125 40.92578125 -2.25 38.3125 C-3.781619 32.75740518 -6.07286926 29.93882011 -11 27 C-13.64927461 25.78188947 -16.20918431 24.88131022 -19 24 C-18 21 -18 21 -15.890625 19.82421875 C-15.01921875 19.44910156 -14.1478125 19.07398437 -13.25 18.6875 C-7.71362685 16.0180362 -4.238154 13.35710862 -2.0390625 7.39453125 C-1.28498515 4.94205032 -0.60594681 2.49275678 0 0 Z M1 6 C-0.62694815 8.09179047 -2.05362657 10.0995922 -3.3125 12.4375 C-5.42436689 15.64440898 -8.00092115 17.62572924 -11 20 C-12.01164025 20.98822265 -13.01476866 21.9854463 -14 23 C-13.39671875 23.37511719 -12.7934375 23.75023438 -12.171875 24.13671875 C-2.10915493 30.58010563 -2.10915493 30.58010563 -0.25 36.3125 C-0.1675 36.869375 -0.085 37.42625 0 38 C0.66 38 1.32 38 2 38 C2.5259375 36.453125 2.5259375 36.453125 3.0625 34.875 C5.39928782 29.41511188 9.64443854 26.10260324 14.9375 23.625 C15.618125 23.41875 16.29875 23.2125 17 23 C16.67 22.34 16.34 21.68 16 21 C14.948125 20.649375 13.89625 20.29875 12.8125 19.9375 C7.71612497 17.9136309 5.66025586 13.54631961 3 9 C2.34 8.01 1.68 7.02 1 6 Z " fill="#6F6F4F" transform="translate(171,15)"/>
<path d="M0 0 C7.02309955 -0.22886056 13.54458508 0.36098132 20.4375 1.6875 C21.38979492 1.86684082 22.34208984 2.04618164 23.32324219 2.23095703 C36.15043036 4.71838285 48.64843054 8.12666019 61.0625 12.1875 C61.83110352 12.43741699 62.59970703 12.68733398 63.39160156 12.94482422 C68.7538042 14.7538042 68.7538042 14.7538042 71 17 C70.8125 19 70.8125 19 70 21 C69.01 21.66 68.02 22.32 67 23 C68.09378361 26.09905357 69.28618545 28.40883636 71.1875 31.125 C71.785625 32.07375 72.38375 33.0225 73 34 C72.67 34.99 72.34 35.98 72 37 C70.84372186 35.44521347 69.7003781 33.88080281 68.5625 32.3125 C67.92441406 31.44238281 67.28632813 30.57226562 66.62890625 29.67578125 C64.98271807 26.97161122 64.20985383 25.14780751 64 22 C65.9375 19.1875 65.9375 19.1875 68 17 C67.42636719 16.85304688 66.85273438 16.70609375 66.26171875 16.5546875 C60.83344212 15.12142478 55.48090917 13.52800971 50.14233398 11.79467773 C34.63289515 6.77396929 19.12660261 4.15375326 3 2 C3.29769287 2.60996826 3.59538574 3.21993652 3.90209961 3.84838867 C5.25319205 6.6252385 6.59541366 9.40628698 7.9375 12.1875 C8.64036133 13.62706055 8.64036133 13.62706055 9.35742188 15.09570312 C9.80537109 16.02705078 10.25332031 16.95839844 10.71484375 17.91796875 C11.12855225 18.77156982 11.54226074 19.6251709 11.96850586 20.50463867 C13.00212818 23.00514843 13.56396865 25.33582761 14 28 C11.27266862 26.63633431 10.95241267 25.13354201 9.6875 22.37890625 C9.25179687 21.44369141 8.81609375 20.50847656 8.3671875 19.54492188 C7.91601562 18.56072266 7.46484375 17.57652344 7 16.5625 C6.10808418 14.62449435 5.21242244 12.68820699 4.3125 10.75390625 C3.91675781 9.89095947 3.52101563 9.0280127 3.11328125 8.13891602 C2.06652962 5.8660198 2.06652962 5.8660198 0 4 C0 2.68 0 1.36 0 0 Z " fill="#6F6F4F" transform="translate(95,74)"/>
<path d="M0 0 C0 0.99 0 1.98 0 3 C-0.8971875 3.23074219 -1.794375 3.46148437 -2.71875 3.69921875 C-9.73480315 5.53295991 -16.70220221 7.46364565 -23.625 9.625 C-24.28693359 9.83084717 -24.94886719 10.03669434 -25.63085938 10.2487793 C-28.39413385 11.1216714 -31.09511491 12.03938561 -33.7734375 13.1484375 C-36 14 -36 14 -39 14 C-38.6484433 11.32586382 -38.27134757 10.23646847 -36.20703125 8.4375 C-24.58441639 1.46013904 -13.38811155 -0.73248027 0 0 Z " fill="#ADAD46" transform="translate(228,92)"/>
<path d="M0 0 C13.1255814 -0.79683125 24.93744915 1.57257638 36.2421875 8.4375 C38.26857221 10.23873085 38.64613084 11.35168883 39 14 C34.74732601 13.42837026 31.24398933 12.38292197 27.3125 10.6875 C18.80763892 7.29344871 9.97135574 5.69574728 1 4 C0.67 2.68 0.34 1.36 0 0 Z " fill="#B3B346" transform="translate(116,92)"/>
<path d="M0 0 C0.495 1.98 0.495 1.98 1 4 C0.43192627 4.12528076 -0.13614746 4.25056152 -0.72143555 4.37963867 C-10.94419199 6.65813639 -20.86084717 8.92002036 -30.50390625 13.08203125 C-33 14 -33 14 -37 14 C-36.8828125 12.22265625 -36.8828125 12.22265625 -36 10 C-25.39921345 2.68640097 -12.75779483 -0.27698916 0 0 Z " fill="#86864C" transform="translate(222,108)"/>
<path d="M0 0 C13.50445989 4.86984684 13.50445989 4.86984684 16.15625 9.20703125 C16.37410156 9.80386719 16.59195313 10.40070313 16.81640625 11.015625 C12.01845437 10.46573379 7.93235322 9.45927012 3.44140625 7.703125 C-2.86931262 5.34594583 -9.15165634 3.73956497 -15.76123047 2.44799805 C-17.5908524 2.06414788 -19.3922304 1.55029749 -21.18359375 1.015625 C-21.51359375 0.025625 -21.84359375 -0.964375 -22.18359375 -1.984375 C-16.17045825 -4.99094275 -6.17471624 -1.83354019 0 0 Z " fill="#9B9B49" transform="translate(143.18359375,110.984375)"/>
<path d="M0 0 C0.33 0.99 0.66 1.98 1 3 C1.66 3 2.32 3 3 3 C3.15557373 3.83249268 3.31114746 4.66498535 3.47143555 5.52270508 C4.06034004 8.61807354 4.66811306 11.7089602 5.28881836 14.7980957 C5.55325001 16.13417991 5.81017242 17.47177365 6.05932617 18.81079102 C6.4193599 20.73836722 6.80895396 22.66034769 7.19921875 24.58203125 C7.53699341 26.31803589 7.53699341 26.31803589 7.8815918 28.08911133 C9.24182926 31.62941067 10.6173379 32.44305531 14 34 C14.495 33.505 14.495 33.505 15 33 C14.34 32.01 13.68 31.02 13 30 C23.51894507 32.63973526 33.90397775 35.90835867 43 42 C43.33 42.66 43.66 43.32 44 44 C39.32606872 43.51313216 35.59596826 42.47052921 31.18505859 40.76879883 C26.9297821 39.27160713 22.50152891 38.45436308 18.09179688 37.5390625 C13.92061851 36.62132804 10.42804216 35.6948399 7 33 C5.9609375 31.08203125 5.9609375 31.08203125 5.375 28.8125 C5.148125 27.9359375 4.92125 27.059375 4.6875 26.15625 C2.79980216 17.49000084 1.20816892 8.78771924 0 0 Z " fill="#70704F" transform="translate(100,129)"/>
<path d="M0 0 C1.18335938 -0.02578125 2.36671875 -0.0515625 3.5859375 -0.078125 C6.625 0.25 6.625 0.25 8.5390625 1.265625 C10.31816388 4.51664479 10.23613937 7.69578565 9.625 11.25 C8.33356149 13.76400029 7.14272388 15.75811127 5.5 18 C4.67083369 19.20233215 3.84667736 20.40813341 3.02734375 21.6171875 C2.61983887 22.21756836 2.21233398 22.81794922 1.79248047 23.43652344 C-1.02165034 27.80778309 -3.17831655 32.54651307 -5.375 37.25 C-6.89117779 32.70146662 -4.89226093 29.86637013 -3.046875 25.58984375 C-0.80428149 21.10989644 1.93095235 17.09871624 4.85546875 13.0390625 C6.67794905 10.16654388 7.6879166 7.50816689 8.625 4.25 C-2.63086199 0.498046 -16.55715728 3.96354023 -27.88085938 5.8269043 C-33.80233112 6.79021619 -39.37444319 7.48531595 -45.375 7.25 C-42.21927524 5.46503299 -39.40469386 4.77053847 -35.83203125 4.21484375 C-34.75759766 4.04533203 -33.68316406 3.87582031 -32.57617188 3.70117188 C-31.45791016 3.53166016 -30.33964844 3.36214844 -29.1875 3.1875 C-28.08857422 3.01412109 -26.98964844 2.84074219 -25.85742188 2.66210938 C-17.2444718 1.32163235 -8.72837256 0.11560758 0 0 Z " fill="#696950" transform="translate(258.375,59.75)"/>
<path d="M0 0 C3.70496998 5.55745497 5.07251391 11.99839383 6.41015625 18.4765625 C7.09120229 21.39017666 7.98604778 24.20540065 8.875 27.0625 C11.18784873 34.88663509 12.37940852 42.84165928 13.51708984 50.91235352 C13.66742676 51.91451904 13.81776367 52.91668457 13.97265625 53.94921875 C14.09906494 54.84987061 14.22547363 55.75052246 14.35571289 56.6784668 C15.07456816 59.26868839 15.95135194 60.31015274 18 62 C15.6875 61.4375 15.6875 61.4375 13 60 C10.14418717 54.60412761 9.39556329 49.63630648 8.75 43.625 C7.19407338 31.01698264 4.72417122 16.44834243 -1 5 C-0.72057545 3.32345271 -0.39171753 1.65391846 0 0 Z " fill="#7C7C4D" transform="translate(82,110)"/>
<path d="M0 0 C4.14530441 1.48046586 7.56157276 2.90525653 10.625 6.1875 C10.625 6.8475 10.625 7.5075 10.625 8.1875 C4.04727814 7.52506276 -2.0207395 5.5972775 -8.3125 3.625 C-9.37791016 3.29564453 -10.44332031 2.96628906 -11.54101562 2.62695312 C-14.15384238 1.8185 -16.76506622 1.00523465 -19.375 0.1875 C-19.375 -0.4725 -19.375 -1.1325 -19.375 -1.8125 C-13.82364572 -4.58817714 -5.57636713 -1.75296689 0 0 Z " fill="#8D8D4B" transform="translate(144.375,128.8125)"/>
<path d="M0 0 C6.71954996 7.48557865 11.83040726 15.82443585 12 26 C10.50924716 23.76387074 9.32239901 21.74047295 8.16015625 19.34765625 C7.6487207 18.30641602 7.6487207 18.30641602 7.12695312 17.24414062 C6.41960782 15.79440721 5.71386727 14.34388968 5.00976562 12.89257812 C2.49633542 7.62545993 2.49633542 7.62545993 -1 3 C-4.04230823 2.49989476 -4.04230823 2.49989476 -7 3 C-7.66 3.66 -8.32 4.32 -9 5 C-8.87175864 9.36020608 -6.63532173 12.2398184 -4.33203125 15.7578125 C-2.46471883 18.90103048 -1.20481392 22.18748347 0.08203125 25.6015625 C0.9097969 27.7643204 1.8345065 29.83990309 2.8125 31.9375 C4 35 4 35 3 38 C2.56429687 37.04480469 2.12859375 36.08960938 1.6796875 35.10546875 C-3.43721161 22.21094407 -3.43721161 22.21094407 -11 11 C-11.375 7.6875 -11.375 7.6875 -11 4 C-7.71861389 0.2360571 -4.93655202 -0.94529719 0 0 Z " fill="#75754E" transform="translate(78,75)"/>
<path d="M0 0 C0.33 0.66 0.66 1.32 1 2 C2.80645119 2.66525829 2.80645119 2.66525829 5.0625 3.1875 C21.39817819 7.87148191 36.74323546 16.16194481 49 28 C52.52238047 26.43632643 55.27123994 24.30504111 58.25 21.875 C59.14203125 21.15054688 60.0340625 20.42609375 60.953125 19.6796875 C61.62859375 19.12539062 62.3040625 18.57109375 63 18 C63.66 18.33 64.32 18.66 65 19 C60.38 22.96 55.76 26.92 51 31 C48.15186251 29.57593126 46.06734956 28.41563428 43.609375 26.5390625 C42.98160156 26.06726563 42.35382813 25.59546875 41.70703125 25.109375 C40.41602158 24.13016607 39.12691214 23.14844609 37.83984375 22.1640625 C33.4238623 18.85432487 28.99926497 16.3440998 24 14 C24 13.34 24 12.68 24 12 C22.9275 11.773125 21.855 11.54625 20.75 11.3125 C13.5277833 9.51984264 6.60461916 6.39666128 0 3 C0 2.01 0 1.02 0 0 Z " fill="#6E6E4F" transform="translate(122,148)"/>
<path d="M0 0 C0 0.99 0 1.98 0 3 C-3.5403097 3.98411806 -7.08247043 4.96140579 -10.625 5.9375 C-11.62402344 6.21529297 -12.62304688 6.49308594 -13.65234375 6.77929688 C-18.41580891 8.08846114 -23.09357067 9.33855304 -28 10 C-28 9.01 -28 8.02 -28 7 C-19.7579943 2.35291168 -9.68603027 -3.12968431 0 0 Z " fill="#91914A" transform="translate(218,127)"/>
<path d="M0 0 C0.33 0 0.66 0 1 0 C1.254907 6.84959766 0.27168115 13.20541534 -0.9375 19.9375 C-1.64676439 23.95499403 -2.33318463 27.97525589 -3 32 C-3.15605713 32.84715576 -3.31211426 33.69431152 -3.47290039 34.56713867 C-4.08692415 38.45299147 -4.30229223 40.36823394 -2.56640625 43.99609375 C-1.57447266 45.20458984 -1.57447266 45.20458984 -0.5625 46.4375 C3 50.89236791 3 50.89236791 3 53 C4.65 51.68 6.3 50.36 8 49 C8.33 49.66 8.66 50.32 9 51 C8.01 52.32 7.02 53.64 6 55 C2.99909355 54.67539864 2.10918272 54.12817102 0.11328125 51.78515625 C-0.48097656 50.88667969 -1.07523438 49.98820312 -1.6875 49.0625 C-2.59048828 47.71865234 -2.59048828 47.71865234 -3.51171875 46.34765625 C-8.71242786 38.143913 -5.50261052 27.5921283 -3.91870117 18.53808594 C-3.55854086 16.47734686 -3.21096961 14.41476614 -2.86523438 12.3515625 C-1.15629186 2.31258372 -1.15629186 2.31258372 0 0 Z " fill="#6E6E4F" transform="translate(168,111)"/>
<path d="M0 0 C1.35386936 1.65002828 2.68678142 3.3174387 4 5 C4.99 5.33 5.98 5.66 7 6 C7 6.66 7 7.32 7 8 C6.236875 8.2475 5.47375 8.495 4.6875 8.75 C1.7635955 10.10995558 0.69995644 11.31585826 -1 14 C-4.43595166 12.47291037 -7.11912454 10.40072955 -10 8 C-8.45164495 3.35493484 -5.01418035 0 0 0 Z " fill="#CFCF41" transform="translate(216,39)"/>
<path d="M0 0 C0.73605469 0.20882812 1.47210938 0.41765625 2.23046875 0.6328125 C2.56046875 1.2928125 2.89046875 1.9528125 3.23046875 2.6328125 C2.53824219 2.560625 1.84601563 2.4884375 1.1328125 2.4140625 C-7.15644664 1.62772962 -15.44559615 1.25895016 -23.76953125 1.6328125 C-24.09953125 1.9628125 -24.42953125 2.2928125 -24.76953125 2.6328125 C-24.63091711 9.28629145 -21.65794146 13.38880974 -17.76953125 18.6328125 C-18.75953125 18.6328125 -19.74953125 18.6328125 -20.76953125 18.6328125 C-22.59375 16.65625 -22.59375 16.65625 -24.45703125 14.0078125 C-25.07964844 13.14929688 -25.70226562 12.29078125 -26.34375 11.40625 C-28.03342871 8.11947771 -28.34136148 6.27884113 -27.76953125 2.6328125 C-22.32105122 -5.40636637 -8.24291169 -1.3720038 0 0 Z " fill="#6C6C4F" transform="translate(103.76953125,61.3671875)"/>
<path d="M0 0 C0 1.32 0 2.64 0 4 C-5.10334017 5.905247 -9.46342706 7.42589023 -15 7 C-15 7.66 -15 8.32 -15 9 C-16.7902061 9.67057887 -18.58221489 10.3363469 -20.375 11 C-21.37273437 11.37125 -22.37046875 11.7425 -23.3984375 12.125 C-26 13 -26 13 -28 13 C-27 10 -27 10 -25.171875 8.7890625 C-6.88590604 0 -6.88590604 0 0 0 Z " fill="#77774D" transform="translate(225,162)"/>
<path d="M0 0 C2.40364382 2.40364382 2.83996833 4.15243105 3.83984375 7.390625 C4.17959229 8.48681152 4.51934082 9.58299805 4.86938477 10.71240234 C5.22186279 11.87980957 5.57434082 13.0472168 5.9375 14.25 C6.29577881 15.42900879 6.65405762 16.60801758 7.02319336 17.82275391 C13.67944258 40.02248424 13.67944258 40.02248424 12 46 C9.46815145 38.70641794 7.41126425 31.33710227 5.4375 23.875 C4.83250114 21.60143741 4.22704541 19.32799634 3.62109375 17.0546875 C3.34120605 15.99862305 3.06131836 14.94255859 2.77294922 13.85449219 C2.14568481 11.53801225 1.48069842 9.24176397 0.78515625 6.9453125 C0 4 0 4 0 0 Z " fill="#72724F" transform="translate(109,102)"/>
<path d="M0 0 C-3.85254698 3.45035801 -8.46988438 4.88677614 -13.25 6.625 C-14.48169922 7.09292969 -14.48169922 7.09292969 -15.73828125 7.5703125 C-23.17281283 10.30376944 -29.51177094 11.8200724 -37.375 9.6875 C-38.39335937 9.42324219 -39.41171875 9.15898437 -40.4609375 8.88671875 C-43 8 -43 8 -45 6 C-43.4840625 6.2475 -43.4840625 6.2475 -41.9375 6.5 C-40.29357933 6.68458057 -38.64726102 6.8480912 -37 7 C-35.37964844 7.1546875 -35.37964844 7.1546875 -33.7265625 7.3125 C-23.99806479 7.81033357 -17.37659507 5.61315381 -8.6796875 1.53125 C-5.36352437 0.15127553 -3.50725163 -0.38211302 0 0 Z " fill="#767650" transform="translate(202,182)"/>
<path d="M0 0 C-3.96 1.65 -7.92 3.3 -12 5 C-9.38892198 5 -7.25504605 4.23919392 -4.75 3.5 C-0.71122165 2.36956664 2.77331284 1.65729564 7 2 C3.23073446 4.11470482 -0.82204574 5.26198732 -4.9375 6.5 C-10.43743664 8.15403671 -10.43743664 8.15403671 -15.81640625 10.15625 C-18 11 -18 11 -21 11 C-20.79296875 9.1953125 -20.79296875 9.1953125 -20 7 C-14.26804745 2.4878415 -7.31037697 -1.82759424 0 0 Z " fill="#69694F" transform="translate(210,95)"/>
<path d="M0 0 C0 0.33 0 0.66 0 1 C-0.94915283 1.06731323 -0.94915283 1.06731323 -1.91748047 1.13598633 C-13.40208435 1.96996507 -24.79549391 2.84132116 -36.11279297 5.03442383 C-40.84814807 5.92783285 -45.20560416 6.11771954 -50 6 C-45.14288432 3.30215141 -39.99012513 2.75148564 -34.5625 1.875 C-33.46043213 1.69614258 -32.35836426 1.51728516 -31.22290039 1.33300781 C-20.768797 -0.24219611 -10.54383911 -0.39913587 0 0 Z " fill="#71714F" transform="translate(263,61)"/>
<path d="M0 0 C10.51894507 2.63973526 20.90397775 5.90835867 30 12 C30.33 12.66 30.66 13.32 31 14 C25.54520815 13.43179252 21.08940744 12.05362055 16 10 C16.33 9.34 16.66 8.68 17 8 C16.02417969 7.75765625 15.04835937 7.5153125 14.04296875 7.265625 C12.77066406 6.93046875 11.49835938 6.5953125 10.1875 6.25 C8.29064453 5.76273438 8.29064453 5.76273438 6.35546875 5.265625 C2.90475444 3.96407502 1.7799672 3.14968174 0 0 Z " fill="#92924A" transform="translate(113,159)"/>
<path d="M0 0 C1.84897848 4.20914512 -0.09082981 7.80486258 -1.625 11.8125 C-2.18634158 13.33019522 -2.74620731 14.84843702 -3.3046875 16.3671875 C-3.58924805 17.13514648 -3.87380859 17.90310547 -4.16699219 18.69433594 C-5.88776418 23.45722302 -7.38681006 28.29587295 -8.921875 33.12109375 C-10 36 -10 36 -12 38 C-11.4712066 30.46701334 -9.08741774 23.83083348 -6.5625 16.75 C-6.15451172 15.57953125 -5.74652344 14.4090625 -5.32617188 13.203125 C-2.03975615 3.85319186 -2.03975615 3.85319186 0 0 Z " fill="#6A6A50" transform="translate(238,93)"/>
<path d="M0 0 C6.06461306 0.31919016 11.33124483 3.24565262 16 7 C16.79296875 9.19921875 16.79296875 9.19921875 17 11 C12.5523494 10.40564429 8.77426273 9.25535901 4.625 7.5625 C-0.22762804 5.6392362 -4.90238229 4.09948617 -10 3 C-10 2.67 -10 2.34 -10 2 C-2.20289894 2.52861702 4.56942713 4.57528675 12 7 C8.04 5.02 4.08 3.04 0 1 C0 0.67 0 0.34 0 0 Z " fill="#656551" transform="translate(138,95)"/>
<path d="M0 0 C0.99 0.33 1.98 0.66 3 1 C3.474375 2.11375 3.94875 3.2275 4.4375 4.375 C5.96048581 7.90832708 6.77181153 9.10761366 10 11 C7.625 10.75 7.625 10.75 5 10 C3.6875 7.9375 3.6875 7.9375 3 6 C0.50475883 7.45555735 -1.86025584 8.8890267 -4.125 10.6875 C-6 12 -6 12 -9 12 C-8.67 12.99 -8.34 13.98 -8 15 C-9.32 15 -10.64 15 -12 15 C-11.9375 13.1875 -11.9375 13.1875 -11 11 C-9.26575656 10.34556851 -7.53076162 9.69291627 -5.7890625 9.05859375 C-2.45389202 7.08516318 -1.33717577 3.49659005 0 0 Z " fill="#686850" transform="translate(213,33)"/>
<path d="M0 0 C3.30698302 -0.23071975 5.72942826 -0.09411191 8.875 1 C11 3 11 3 11.75 6.4375 C11.39297148 12.61063822 7.6124485 18.16535265 4 23 C3.01 23.33 2.02 23.66 1 24 C2.14470604 20.66994606 3.64663438 18.00567969 5.625 15.125 C8.19120998 11.16656467 8.48404405 8.6468229 8 4 C5.69 3.01 3.38 2.02 1 1 C1 1.66 1 2.32 1 3 C0.34 3 -0.32 3 -1 3 C-0.67 2.01 -0.34 1.02 0 0 Z " fill="#6E6E50" transform="translate(266,75)"/>
<path d="M0 0 C-0.64648806 4.5874084 -2.45400005 8.48833209 -4.4375 12.625 C-4.90639648 13.62660156 -4.90639648 13.62660156 -5.38476562 14.6484375 C-6.77295352 17.58329562 -8.19593442 20.29390163 -10 23 C-9.85317309 14.33721202 -6.32185876 8.30089457 -2 1 C-2.99 1.495 -2.99 1.495 -4 2 C-6.2072923 2.07092842 -8.41667452 2.08415025 -10.625 2.0625 C-11.81351563 2.05347656 -13.00203125 2.04445313 -14.2265625 2.03515625 C-15.14179688 2.02355469 -16.05703125 2.01195313 -17 2 C-17 1.67 -17 1.34 -17 1 C-11.29309366 0.00749455 -5.78591511 -0.10477512 0 0 Z " fill="#7C7C4D" transform="translate(249,74)"/>
<path d="M0 0 C4.56189805 0.56682266 8.13689131 1.77144732 12.25 3.8125 C13.28640625 4.31394531 14.3228125 4.81539063 15.390625 5.33203125 C18.08088809 7.05170541 18.94768524 8.04196888 20 11 C13.81839396 10.46246904 8.673142 8.45417612 3 6 C5.07553648 5.4465236 6.84365964 5 9 5 C4.545 3.02 4.545 3.02 0 1 C0 0.67 0 0.34 0 0 Z " fill="#676750" transform="translate(140,111)"/>
<path d="M0 0 C0.66 0.33 1.32 0.66 2 1 C1.484375 1.391875 0.96875 1.78375 0.4375 2.1875 C-1.22655016 3.90009279 -1.22655016 3.90009279 -1 6.1875 C0.14686401 9.41305503 1.8006812 11.90575946 3.66796875 14.7578125 C5.53528117 17.90103048 6.79518608 21.18748347 8.08203125 24.6015625 C8.9097969 26.7643204 9.8345065 28.83990309 10.8125 30.9375 C12 34 12 34 11 37 C10.56429687 36.04480469 10.12859375 35.08960938 9.6796875 34.10546875 C4.56278839 21.21094407 4.56278839 21.21094407 -3 10 C-3.47323944 3.61126761 -3.47323944 3.61126761 -1.5 1.0625 C-1.005 0.711875 -0.51 0.36125 0 0 Z " fill="#666650" transform="translate(70,76)"/>
<path d="M0 0 C2 1 2 1 3 3.75 C4.24218651 8.39134806 4.7574268 13.15294532 5.33984375 17.9140625 C6.03267265 21.15273012 7.14494443 23.28059974 9 26 C7.35 25.67 5.7 25.34 4 25 C3.32391731 22.14777615 2.65894885 19.29368707 2 16.4375 C1.80921875 15.63763672 1.6184375 14.83777344 1.421875 14.01367188 C0.32538878 9.21654468 -0.21132197 4.91983966 0 0 Z " fill="#626251" transform="translate(106,136)"/>
<path d="M0 0 C0.99 0.33 1.98 0.66 3 1 C3.95703125 3.546875 3.95703125 3.546875 4.8125 6.75 C6.53090215 12.36656735 8.07664072 14.86695318 13 18 C11.68 18.33 10.36 18.66 9 19 C8.03760548 17.75312408 7.08025991 16.50235031 6.125 15.25 C5.59132812 14.55390625 5.05765625 13.8578125 4.5078125 13.140625 C3.10761086 11.15277397 2.02144735 9.20156614 1 7 C0.01 7.99 -0.98 8.98 -2 10 C-1.125 2.25 -1.125 2.25 0 0 Z " fill="#6E6E4F" transform="translate(171,15)"/>
<path d="M0 0 C7.68395543 -0.2137731 14.56340812 -0.01670288 22 2 C22 2.33 22 2.66 22 3 C17.71 3 13.42 3 9 3 C9.99 3.66 10.98 4.32 12 5 C8.37 4.67 4.74 4.34 1 4 C0.67 2.68 0.34 1.36 0 0 Z " fill="#666650" transform="translate(116,92)"/>
<path d="M0 0 C10.25800825 -0.59180817 20.8836744 2.27938696 30 7 C30.33 7.66 30.66 8.32 31 9 C30.37996094 8.82984375 29.75992188 8.6596875 29.12109375 8.484375 C23.45922826 6.93498532 17.79394526 5.39827137 12.125 3.875 C10.89007813 3.54242188 9.65515625 3.20984375 8.3828125 2.8671875 C5.59570023 2.15270837 2.82738632 1.5267754 0 1 C0 0.67 0 0.34 0 0 Z " fill="#717150" transform="translate(116,175)"/>
<path d="M0 0 C-0.7528125 0.3403125 -1.505625 0.680625 -2.28125 1.03125 C-7.34368124 3.34129144 -12.37810455 5.65749991 -17.3203125 8.21484375 C-18.03638672 8.58351562 -18.75246094 8.9521875 -19.49023438 9.33203125 C-20.8995941 10.06185522 -22.30468147 10.79999679 -23.70507812 11.546875 C-25.43339116 12.43946339 -27.21436355 13.22845451 -29 14 C-29.99 13.67 -30.98 13.34 -32 13 C-25.05181375 8.51773867 -18.0599477 5.00772158 -10.375 2 C-9.58109863 1.68538818 -8.78719727 1.37077637 -7.96923828 1.04663086 C-2.25471685 -1.12735843 -2.25471685 -1.12735843 0 0 Z " fill="#71714F" transform="translate(219,152)"/>
<path d="M0 0 C-5.445 2.475 -5.445 2.475 -11 5 C-10.01 5.66 -9.02 6.32 -8 7 C-14.5 10 -14.5 10 -19 10 C-18.92578125 8.23828125 -18.92578125 8.23828125 -18 6 C-15.7186703 4.52141503 -13.62136274 3.34450209 -11.1875 2.1875 C-10.55779297 1.86330078 -9.92808594 1.53910156 -9.27929688 1.20507812 C-5.45358226 -0.66964247 -4.28353576 -1.07088394 0 0 Z " fill="#646452" transform="translate(204,112)"/>
<path d="M0 0 C0.65625 1.72265625 0.65625 1.72265625 1 4 C0.03125 6.12109375 0.03125 6.12109375 -1.5 8.4375 C-4.14247239 12.58729818 -6.56647585 16.78461761 -8.875 21.125 C-9.47054687 22.24132812 -10.06609375 23.35765625 -10.6796875 24.5078125 C-11.33324219 25.74144531 -11.33324219 25.74144531 -12 27 C-12.33 26.34 -12.66 25.68 -13 25 C-12.24316406 22.90869141 -12.24316406 22.90869141 -11.015625 20.3515625 C-10.57476562 19.42859375 -10.13390625 18.505625 -9.6796875 17.5546875 C-9.20789063 16.58789062 -8.73609375 15.62109375 -8.25 14.625 C-7.79367187 13.6659375 -7.33734375 12.706875 -6.8671875 11.71875 C-4.8425955 7.51742904 -2.90871838 3.66710059 0 0 Z " fill="#76764E" transform="translate(264,78)"/>
<path d="M0 0 C3.2601206 2.9100866 4.85085989 5.39160619 6.3125 9.5 C6.65925781 10.4384375 7.00601563 11.376875 7.36328125 12.34375 C8 15 8 15 7 19 C6.01 15.37 5.02 11.74 4 8 C3.34 8 2.68 8 2 8 C1.34 9.32 0.68 10.64 0 12 C-0.99 8.7 -1.98 5.4 -3 2 C-1.515 2.99 -1.515 2.99 0 4 C0 2.68 0 1.36 0 0 Z " fill="#84844D" transform="translate(96,106)"/>
<path d="M0 0 C1.26328125 0.01804687 2.5265625 0.03609375 3.828125 0.0546875 C4.79234375 0.07789062 5.7565625 0.10109375 6.75 0.125 C6.75 1.115 6.75 2.105 6.75 3.125 C2.92679443 4.54758812 -0.16281305 5.36542276 -4.25 5.125 C-3.26 4.465 -2.27 3.805 -1.25 3.125 C-4.55 2.795 -7.85 2.465 -11.25 2.125 C-6.91061709 -0.04469145 -4.76609592 -0.08826104 0 0 Z " fill="#666651" transform="translate(221.25,91.875)"/>
<path d="M0 0 C-2.97 1.32 -5.94 2.64 -9 4 C-8.34 4.66 -7.68 5.32 -7 6 C-10.78187881 7.83691257 -12.94568308 8.15837626 -17 7 C-12.7030853 1.76897341 -6.63700293 -1.65925073 0 0 Z " fill="#676751" transform="translate(206,129)"/>
<path d="M0 0 C0.33 0 0.66 0 1 0 C1.16589226 6.02741895 0.57114133 11.57494793 -0.5 17.5 C-0.64308594 18.32242188 -0.78617188 19.14484375 -0.93359375 19.9921875 C-1.28306912 21.99584627 -1.64068156 23.99808298 -2 26 C-2.33 26 -2.66 26 -3 26 C-3.6 7.2 -3.6 7.2 0 0 Z " fill="#7D7D4D" transform="translate(168,111)"/>
<path d="M0 0 C0.33 0.99 0.66 1.98 1 3 C-0.28965176 4.37562854 -1.62689293 5.70766393 -3 7 C-3.66 7 -4.32 7 -5 7 C-5 7.66 -5 8.32 -5 9 C-4.01 9 -3.02 9 -2 9 C-1.34 10.65 -0.68 12.3 0 14 C-3.3 12.35 -6.6 10.7 -10 9 C-9 6 -9 6 -7.1875 4.90234375 C-6.465625 4.58394531 -5.74375 4.26554687 -5 3.9375 C-1.8485304 2.67769923 -1.8485304 2.67769923 0 0 Z " fill="#606051" transform="translate(127,38)"/>
<path d="M0 0 C0.99 0.33 1.98 0.66 3 1 C3.28875 1.94875 3.5775 2.8975 3.875 3.875 C4.7272708 7.14602023 4.7272708 7.14602023 7.4375 8.8125 C10.03163666 10.07274974 10.03163666 10.07274974 13 11 C12.67 12.32 12.34 13.64 12 15 C10.35 15.33 8.7 15.66 7 16 C7.33 15.34 7.66 14.68 8 14 C8.99 14 9.98 14 11 14 C11 13.34 11 12.68 11 12 C10.2575 11.9175 9.515 11.835 8.75 11.75 C5.43668651 10.84636905 4.11884168 9.66817101 2 7 C2 6.01 2 5.02 2 4 C0.68 4.33 -0.64 4.66 -2 5 C-1.34 3.35 -0.68 1.7 0 0 Z " fill="#585852" transform="translate(130,33)"/>
<path d="M0 0 C0.309375 0.639375 0.61875 1.27875 0.9375 1.9375 C1.8345163 3.93610821 1.8345163 3.93610821 3 5 C3.55043888 9.58699068 3.16382435 12.24276057 0.5 15.9375 C-0.325 16.948125 -1.15 17.95875 -2 19 C-2.625 17.1875 -2.625 17.1875 -3 15 C-2.34 14.01 -1.68 13.02 -1 12 C-0.54084493 9.03157342 -0.54084493 9.03157342 -0.375 5.8125 C-0.30023438 4.72582031 -0.22546875 3.63914063 -0.1484375 2.51953125 C-0.09945312 1.68808594 -0.05046875 0.85664063 0 0 Z " fill="#79794E" transform="translate(180,141)"/>
<path d="M0 0 C0.33 0 0.66 0 1 0 C0.60643446 6.10026589 -0.53531662 10.8229806 -2.9453125 16.42578125 C-4.62190108 20.5178993 -5.80542917 24.74660388 -7 29 C-8.40998616 24.53215283 -7.11360214 21.08188525 -5.75 16.75 C-5.53214844 16.02425781 -5.31429687 15.29851562 -5.08984375 14.55078125 C-3.58696221 9.62027515 -1.85014489 4.81037671 0 0 Z " fill="#6A6A50" transform="translate(250,105)"/>
<path d="M0 0 C0.33 0 0.66 0 1 0 C1 2.64 1 5.28 1 8 C0.34 8 -0.32 8 -1 8 C-0.979375 9.299375 -0.95875 10.59875 -0.9375 11.9375 C-0.92995028 16.69382325 -1.40112883 21.28388953 -2 26 C-2.66 26 -3.32 26 -4 26 C-4.33 26.99 -4.66 27.98 -5 29 C-5.33 28.34 -5.66 27.68 -6 27 C-5.566875 25.92878906 -5.566875 25.92878906 -5.125 24.8359375 C-3.7694352 21.41878456 -3.41456937 18.27469107 -3 14.625 C-2.41740602 9.51689925 -1.51645143 4.89055587 0 0 Z " fill="#676751" transform="translate(241,134)"/>
<path d="M0 0 C1.30339523 3.91018568 0.34282308 5.10550887 -1.3125 8.8125 C-3.08995145 12.83086445 -4.66644469 16.81150936 -6 21 C-6.33 21 -6.66 21 -7 21 C-6.72876813 12.86304398 -3.91083499 7.06820635 0 0 Z " fill="#616151" transform="translate(251,97)"/>
<path d="M0 0 C0.33 1.32 0.66 2.64 1 4 C-0.32 4 -1.64 4 -3 4 C-3 3.34 -3 2.68 -3 2 C-3.99 2.165 -4.98 2.33 -6 2.5 C-10.02732942 3.08474517 -13.93474623 3.07132024 -18 3 C-18 2.67 -18 2.34 -18 2 C-11.93184478 0.77100654 -6.20104812 -0.27560214 0 0 Z " fill="#585854" transform="translate(222,108)"/>
<path d="M0 0 C2.27024968 -0.08097324 4.54132075 -0.13917704 6.8125 -0.1875 C8.07707031 -0.22230469 9.34164063 -0.25710937 10.64453125 -0.29296875 C14 0 14 0 15.92578125 1.26171875 C17.83029091 4.34356166 17.56782389 7.50569915 17 11 C15.5 13 15.5 13 14 14 C14.66666667 10.66666667 15.33333333 7.33333333 16 4 C12.59648662 1.96780512 9.6767073 1.63108961 5.75 1.375 C4.67234375 1.30023438 3.5946875 1.22546875 2.484375 1.1484375 C1.25460938 1.07496094 1.25460938 1.07496094 0 1 C0 0.67 0 0.34 0 0 Z " fill="#626251" transform="translate(251,60)"/>
<path d="M0 0 C0.99 0.33 1.98 0.66 3 1 C2.54625 1.37125 2.0925 1.7425 1.625 2.125 C-0.47029394 4.54264685 -1.12013285 6.95430602 -2 10 C-2.99 10 -3.98 10 -5 10 C-5.66 7.69 -6.32 5.38 -7 3 C-5.515 3.99 -5.515 3.99 -4 5 C-2.68 3.35 -1.36 1.7 0 0 Z " fill="#616153" transform="translate(134,49)"/>
<path d="M0 0 C5.52414861 0.46034572 10.44047009 1.69827145 15 5 C16.23046875 7.13671875 16.23046875 7.13671875 17 9 C14.69 8.67 12.38 8.34 10 8 C10.99 7.67 11.98 7.34 13 7 C13 6.34 13 5.68 13 5 C12.31292969 4.80664062 11.62585938 4.61328125 10.91796875 4.4140625 C10.01691406 4.15367187 9.11585938 3.89328125 8.1875 3.625 C6.84751953 3.24214844 6.84751953 3.24214844 5.48046875 2.8515625 C3 2 3 2 0 0 Z " fill="#555554" transform="translate(138,128)"/>
<path d="M0 0 C1.55654297 0.13535156 1.55654297 0.13535156 3.14453125 0.2734375 C5.87254374 0.58861224 8.50607903 1.04014293 11.1875 1.625 C11.1875 1.955 11.1875 2.285 11.1875 2.625 C10.22328125 2.61339844 9.2590625 2.60179688 8.265625 2.58984375 C7.00234375 2.58082031 5.7390625 2.57179688 4.4375 2.5625 C2.55804688 2.54509766 2.55804688 2.54509766 0.640625 2.52734375 C-2.09786501 2.60478973 -4.23130293 2.79719185 -6.8125 3.625 C-7.1425 2.635 -7.4725 1.645 -7.8125 0.625 C-5.04716017 -0.75766991 -3.06544564 -0.27970774 0 0 Z " fill="#575753" transform="translate(128.8125,108.375)"/>
<path d="M0 0 C0.86044922 0.54720703 0.86044922 0.54720703 1.73828125 1.10546875 C-1.11582209 2.61107372 -3.94296517 3.73763671 -7.01171875 4.73046875 C-7.8109375 4.99085938 -8.61015625 5.25125 -9.43359375 5.51953125 C-10.036875 5.71289062 -10.64015625 5.90625 -11.26171875 6.10546875 C-10.10260836 2.62813758 -9.57910334 2.38984864 -6.44921875 0.79296875 C-5.76214844 0.42558594 -5.07507813 0.05820313 -4.3671875 -0.3203125 C-2.26171875 -0.89453125 -2.26171875 -0.89453125 0 0 Z " fill="#A6A647" transform="translate(208.26171875,168.89453125)"/>
<path d="M0 0 C0.99 0.33 1.98 0.66 3 1 C3.10957031 1.75925781 3.21914062 2.51851562 3.33203125 3.30078125 C3.49058594 4.29464844 3.64914063 5.28851563 3.8125 6.3125 C3.96332031 7.29863281 4.11414063 8.28476563 4.26953125 9.30078125 C5.03436705 12.12699269 5.75258762 13.1959128 8 15 C5.6875 14.4375 5.6875 14.4375 3 13 C0.52025194 8.55355521 -0.37090206 5.06899479 0 0 Z " fill="#6E6E4F" transform="translate(92,157)"/>
<path d="M0 0 C3 1 3 1 4.38671875 3.07421875 C8.69379336 11.72717045 8.69379336 11.72717045 8 17 C6.03573334 14.05360001 4.4654176 11.09912726 2.875 7.9375 C2.33617188 6.87402344 1.79734375 5.81054688 1.2421875 4.71484375 C0 2 0 2 0 0 Z " fill="#7F7F4D" transform="translate(82,84)"/>
<path d="M0 0 C0.66 0.33 1.32 0.66 2 1 C-0.31 7.27 -2.62 13.54 -5 20 C-6.13350944 15.46596225 -5.59316883 13.80351733 -4.1875 9.4375 C-3.83042969 8.30183594 -3.47335937 7.16617188 -3.10546875 5.99609375 C-2 3 -2 3 0 0 Z " fill="#616151" transform="translate(267,99)"/>
<path d="M0 0 C1.32 0.33 2.64 0.66 4 1 C4.33 2.32 4.66 3.64 5 5 C6.65 3.68 8.3 2.36 10 1 C10.33 1.66 10.66 2.32 11 3 C10.01 4.32 9.02 5.64 8 7 C6.25 6.875 6.25 6.875 4 6 C1.75 2.9375 1.75 2.9375 0 0 Z " fill="#646450" transform="translate(166,159)"/>
<path d="M0 0 C0.25523438 0.54140625 0.51046875 1.0828125 0.7734375 1.640625 C2.23649704 4.45491788 3.90992588 7.08210692 5.625 9.75 C6.25664063 10.73484375 6.88828125 11.7196875 7.5390625 12.734375 C8.02117187 13.48203125 8.50328125 14.2296875 9 15 C8.01 15 7.02 15 6 15 C2.59324916 11.26998083 0.15575944 7.47971467 -0.375 2.4375 C-0.25125 1.633125 -0.1275 0.82875 0 0 Z " fill="#7E7E4D" transform="translate(77,65)"/>
<path d="M0 0 C1.76462683 3.08809695 2 4.23312136 2 8 C2.66 8.33 3.32 8.66 4 9 C5.125 11.0625 5.125 11.0625 6 13 C5.01 13 4.02 13 3 13 C-1.07877462 5.9452954 -1.07877462 5.9452954 -0.75 2 C-0.5025 1.34 -0.255 0.68 0 0 Z " fill="#3F3F56" transform="translate(91,96)"/>
<path d="M0 0 C1.72274487 2.58411731 2.68895522 4.54902656 3.6875 7.4375 C3.95949219 8.19933594 4.23148437 8.96117188 4.51171875 9.74609375 C5.04729142 12.21829721 4.80445309 13.62983284 4 16 C3.67 14.02 3.34 12.04 3 10 C2.34 10 1.68 10 1 10 C-0.83691257 6.21812119 -1.15837626 4.05431692 0 0 Z " fill="#8B8B4B" transform="translate(82,110)"/>
<path d="M0 0 C0.33 0.99 0.66 1.98 1 3 C-2.625 6 -2.625 6 -6 6 C-5.67 6.99 -5.34 7.98 -5 9 C-6.32 9 -7.64 9 -9 9 C-8.9375 7.1875 -8.9375 7.1875 -8 5 C-5.69747517 3.93097061 -3.3627974 2.92824183 -1 2 C-0.67 1.34 -0.34 0.68 0 0 Z " fill="#535353" transform="translate(210,39)"/>
<path d="M0 0 C0.33 0.99 0.66 1.98 1 3 C-0.109375 4.9375 -0.109375 4.9375 -1.75 7 C-2.28109375 7.680625 -2.8121875 8.36125 -3.359375 9.0625 C-4.83392376 10.80387186 -6.35806315 12.41741026 -8 14 C-8.66 13.67 -9.32 13.34 -10 13 C-9.071875 12.13375 -8.14375 11.2675 -7.1875 10.375 C-4.32268798 7.53045788 -2.64034449 4.71235859 -1 1 C-0.67 0.67 -0.34 0.34 0 0 Z " fill="#AFAF46" transform="translate(172,21)"/>
<path d="M0 0 C2.12570312 0.47603774 4.25054427 0.95592598 6.375 1.4375 C8.15003906 1.83775391 8.15003906 1.83775391 9.9609375 2.24609375 C13 3 13 3 15 4 C15 4.66 15 5.32 15 6 C9.86626838 4.60961435 4.96260257 2.91539047 0 1 C0 0.67 0 0.34 0 0 Z " fill="#91914A" transform="translate(153,74)"/>
<path d="M0 0 C0 0.99 0 1.98 0 3 C-2.64 3.33 -5.28 3.66 -8 4 C-7.01 3.34 -6.02 2.68 -5 2 C-7.97 1.505 -7.97 1.505 -11 1 C-11 0.67 -11 0.34 -11 0 C-3.57142857 -1.28571429 -3.57142857 -1.28571429 0 0 Z " fill="#5C5C51" transform="translate(218,127)"/>
<path d="M0 0 C-1 2 -1 2 -4.3125 3.1875 C-7.57562063 3.90649268 -8.99282882 4.20286847 -12 3 C-7.77050005 0.58314288 -4.87664009 -0.34833144 0 0 Z " fill="#BEBE44" transform="translate(208,112)"/>
<path d="M0 0 C0.66 0.33 1.32 0.66 2 1 C1.01 2.98 0.02 4.96 -1 7 C-1.99 7 -2.98 7 -4 7 C-4.33 5.02 -4.66 3.04 -5 1 C-3.68 1.33 -2.36 1.66 -1 2 C-0.67 1.34 -0.34 0.68 0 0 Z " fill="#505055" transform="translate(216,52)"/>
<path d="M0 0 C0.75 1.6875 0.75 1.6875 1 4 C-1.13381449 7.2769294 -2.25018012 8.75006004 -6 10 C-6 7 -6 7 -4.125 5 C-3.42375 4.34 -2.7225 3.68 -2 3 C-1.34 2.01 -0.68 1.02 0 0 Z " fill="#6C6C4F" transform="translate(250,163)"/>
<path d="M0 0 C0 0.66 0 1.32 0 2 C-1.43344 2.53190541 -2.87195367 3.05015258 -4.3125 3.5625 C-5.51326172 3.99755859 -5.51326172 3.99755859 -6.73828125 4.44140625 C-9 5 -9 5 -12 4 C-4.71428571 -0.57142857 -4.71428571 -0.57142857 0 0 Z " fill="#BDBD44" transform="translate(207,97)"/>
<path d="M0 0 C1.00289062 0.10183594 2.00578125 0.20367187 3.0390625 0.30859375 C3.80992187 0.39238281 4.58078125 0.47617188 5.375 0.5625 C5.375 0.8925 5.375 1.2225 5.375 1.5625 C4.43527344 1.65337891 4.43527344 1.65337891 3.4765625 1.74609375 C2.65929687 1.82988281 1.84203125 1.91367188 1 2 C0.18789062 2.08121094 -0.62421875 2.16242188 -1.4609375 2.24609375 C-3.66772805 2.45340114 -3.66772805 2.45340114 -5.625 3.5625 C-6.285 3.2325 -6.945 2.9025 -7.625 2.5625 C-7.625 1.9025 -7.625 1.2425 -7.625 0.5625 C-4.89657939 -0.80171031 -3.01546682 -0.31557211 0 0 Z " fill="#4F4F55" transform="translate(132.625,126.4375)"/>
<path d="M0 0 C0.99 0.33 1.98 0.66 3 1 C3 1.99 3 2.98 3 4 C2.01 4.495 2.01 4.495 1 5 C0.27840576 6.64363134 -0.39351421 8.31050386 -1 10 C-1.33 10 -1.66 10 -2 10 C-1.125 2.25 -1.125 2.25 0 0 Z " fill="#505055" transform="translate(171,15)"/>
<path d="M0 0 C2 1 2 1 3.1875 4.3125 C3.90649268 7.57562063 4.20286847 8.99282882 3 12 C2.67 10.35 2.34 8.7 2 7 C1.34 7 0.68 7 0 7 C0 4.69 0 2.38 0 0 Z " fill="#8E8E4B" transform="translate(106,136)"/>
<path d="M0 0 C2.12038635 2.61514317 4.13091744 5.19637616 6 8 C5.67 8.99 5.34 9.98 5 11 C4.15504811 9.92570402 3.32445142 8.84010798 2.5 7.75 C2.0359375 7.14671875 1.571875 6.5434375 1.09375 5.921875 C0 4 0 4 0 0 Z " fill="#73734E" transform="translate(162,100)"/>
<path d="M0 0 C0.66 0 1.32 0 2 0 C2 1.32 2 2.64 2 4 C2.99 4 3.98 4 5 4 C4.67 5.32 4.34 6.64 4 8 C3.01 7.67 2.02 7.34 1 7 C0.67 4.69 0.34 2.38 0 0 Z " fill="#555554" transform="translate(169,51)"/>
<path d="M0 0 C1.39195915 4.17587745 -0.17676781 6.13474776 -2 10 C-3.32 9.67 -4.64 9.34 -6 9 C-5.38125 8.443125 -4.7625 7.88625 -4.125 7.3125 C-1.93893621 4.93354822 -1.01214301 3.03642904 0 0 Z " fill="#696951" transform="translate(235,151)"/>
<path d="M0 0 C1.22419811 3.67259434 0.54143712 4.57458418 -1 8 C-1.33 8.99 -1.66 9.98 -2 11 C-4 8 -4 8 -3.8125 6.0625 C-2.87858188 3.69178476 -1.61172061 1.96209466 0 0 Z " fill="#5D5D53" transform="translate(163,91)"/>
<path d="M0 0 C3.63 0 7.26 0 11 0 C7.96474514 2.02350324 6.80573798 2.32124018 3.3125 2.625 C2.50425781 2.69976562 1.69601563 2.77453125 0.86328125 2.8515625 C0.24839844 2.90054688 -0.36648437 2.94953125 -1 3 C-0.67 2.01 -0.34 1.02 0 0 Z " fill="#8A8A4B" transform="translate(208,167)"/>
<path d="M0 0 C-2.95183101 2.95183101 -5.95511947 3.08663988 -10 4 C-9.67 3.01 -9.34 2.02 -9 1 C-6.03421164 -0.16513114 -3.15436364 -0.08762121 0 0 Z " fill="#6D6D4F" transform="translate(194,86)"/>
<path d="M0 0 C3.3 0 6.6 0 10 0 C8.515 1.485 8.515 1.485 7 3 C3.875 2.8125 3.875 2.8125 1 2 C0.67 1.34 0.34 0.68 0 0 Z " fill="#7A7A4D" transform="translate(128,128)"/>
<path d="M0 0 C0.33 0 0.66 0 1 0 C1.05422947 1.4370809 1.09289723 2.87475462 1.125 4.3125 C1.14820313 5.11300781 1.17140625 5.91351563 1.1953125 6.73828125 C1 9 1 9 -1 12 C-1.66 12 -2.32 12 -3 12 C-2.690625 11.319375 -2.38125 10.63875 -2.0625 9.9375 C-0.86629351 6.63034088 -0.40994603 3.48454122 0 0 Z " fill="#8A8A4B" transform="translate(275,79)"/>
<path d="M0 0 C0.33 0 0.66 0 1 0 C1 2.31 1 4.62 1 7 C0.34 7 -0.32 7 -1 7 C-1.33 7.99 -1.66 8.98 -2 10 C-3 8 -3 8 -2.44140625 6.0546875 C-2.15136719 5.33539063 -1.86132812 4.61609375 -1.5625 3.875 C-1.27503906 3.15054688 -0.98757812 2.42609375 -0.69140625 1.6796875 C-0.46324219 1.12539062 -0.23507813 0.57109375 0 0 Z " fill="#7D7D4D" transform="translate(238,153)"/>
<path d="M0 0 C-3.63423209 2.32590854 -6.77088331 2.16265833 -11 2 C-7.374967 -1.625033 -4.81746234 -1.01907857 0 0 Z " fill="#83834C" transform="translate(206,132)"/>
<path d="M0 0 C0.33 0.66 0.66 1.32 1 2 C2.65 2 4.3 2 6 2 C3.4345406 4.5654594 1.52313332 4.54046087 -2 5 C-1.125 1.125 -1.125 1.125 0 0 Z " fill="#535355" transform="translate(191,101)"/>
<path d="M0 0 C0.6875 1.75 0.6875 1.75 1 4 C-0.3125 6.25 -0.3125 6.25 -2 8 C-2.66 8 -3.32 8 -4 8 C-2.87548273 5.0280615 -1.77706209 2.66559313 0 0 Z " fill="#79794D" transform="translate(264,71)"/>
</svg>
